#!OML:ASF F:\VICON\USERDATA\INSTALL\rory3\rory3.ASF
:FULLY-SPECIFIED
:DEGREES
222
root -0.0183 17.9346 -22.9007 2.95468 0.0506 0.822328
lowerback 15.5927 -2.28816 -1.49967
upperback 1.92442 -3.19974 1.12292
thorax -6.53406 -1.51023 2.70749
lowerneck -7.34973 3.29383 -1.59881
upperneck -9.86121 4.3308 -2.08815
head -1.83808 2.23419 -0.362687
rclavicle -8.49804e-015 -2.14687e-014
rhumerus -51.8729 1.91445 -81.6148
rradius 88.5095
rwrist -4.34857
rhand -35.541 33.0362
rfingers 7.12502
rthumb -8.66684 3.23409
lclavicle -8.49804e-015 -2.14687e-014
lhumerus -28.777 -19.3236 93.3873
lradius 110.823
lwrist 24.2359
lhand -36.1395 6.66552
lfingers 7.12502
lthumb -9.24444 36.4429
rfemur -27.8245 1.87084 25.4336
rtibia 26.7905
rfoot 0.640438 4.66125
rtoes -1.939
lfemur 8.69559 4.17953 -25.4752
ltibia 72.0143
lfoot 25.8346 2.77087
ltoes -17.6881
223
root -0.0183 17.8305 -22.6037 2.66475 0.0506 0.424724
lowerback 15.9809 -2.22491 -1.0074
upperback 1.76144 -3.0304 1.17442
thorax -6.95434 -1.43066 2.47548
lowerneck -5.97 3.26062 -1.58314
upperneck -10.2926 4.25137 -2.08534
head -2.21286 2.20645 -0.398412
rclavicle -2.13197e-014 -3.97569e-015
rhumerus -50.9076 2.70415 -82.4109
rradius 89.4349
rwrist -4.42261
rhand -35.653 32.62
rfingers 7.12502
rthumb -8.77491 2.82244
lclavicle -2.13197e-014 -3.97569e-015
lhumerus -30.8514 -18.8314 93.9833
lradius 109.988
lwrist 24.961
lhand -35.8669 6.95076
lfingers 7.12502
lthumb -8.98135 36.7396
rfemur -27.0235 1.81574 26.1922
rtibia 29.6298
rfoot -2.12229 4.2193
rtoes 8.6628
lfemur 6.58847 5.76553 -23.6115
ltibia 77.5782
lfoot 23.0841 2.08162
ltoes -17.9508
224
root -0.0183 17.723 -22.3067 2.4135 0.0506 0.0675421
lowerback 16.3401 -2.04886 -0.235997
upperback 1.71026 -2.68574 0.846668
thorax -7.27511 -1.28433 1.6347
lowerneck -5.36183 3.01799 -0.59101
upperneck -10.1413 3.88224 -2.18616
head -2.24533 1.9926 -0.60288
rclavicle -5.18828e-014 -5.46658e-015
rhumerus -49.6339 2.35706 -83.4887
rradius 90.213
rwrist -4.40505
rhand -35.747 33.5829
rfingers 7.12502
rthumb -8.86569 3.78915
lclavicle -5.18828e-014 -5.46658e-015
lhumerus -32.535 -19.2486 93.937
lradius 108.982
lwrist 24.9677
lhand -35.871 6.62981
lfingers 7.12502
lthumb -8.98535 36.4185
rfemur -26.4082 2.34151 26.7216
rtibia 32.6613
rfoot -4.79584 2.00386
rtoes 11.3407
lfemur 4.25922 6.93737 -21.7098
ltibia 83.055
lfoot 23.3755 1.24194
ltoes -10.135
225
root -0.0183 17.6369 -22.0098 1.82118 0.0506 -0.321778
lowerback 17.3562 -1.70608 0.23421
upperback 1.82676 -2.15578 0.669408
thorax -7.74721 -1.0399 1.09514
lowerneck -5.0096 2.84345 0.0484826
upperneck -10.2332 3.62473 -2.23307
head -2.32623 1.84574 -0.731693
rclavicle 8.68441e-015 -1.2424e-014
rhumerus -47.7164 2.41941 -84.4561
rradius 90.9063
rwrist -4.40085
rhand -35.6617 34.2226
rfingers 7.12502
rthumb -8.78333 4.42539
lclavicle 8.68441e-015 -1.2424e-014
lhumerus -33.8558 -18.9566 93.76
lradius 108.031
lwrist 23.4653
lhand -35.4371 9.80959
lfingers 7.12502
lthumb -8.56658 39.6158
rfemur -25.6274 3.68535 27.2771
rtibia 35.6326
rfoot -7.11443 -0.20023
rtoes 9.82192
lfemur 2.18006 8.49114 -19.8832
ltibia 88.2536
lfoot 22.8693 0.965197
ltoes -7.75619
226
root -0.0182 17.55 -21.7128 1.42067 0.0506 -0.754772
lowerback 18.3548 -1.63195 0.515281
upperback 1.77371 -1.98305 0.783073
thorax -8.362 -0.958804 1.0513
lowerneck -3.86443 2.87782 0.0506676
upperneck -10.9475 3.65586 -2.25754
head -2.76725 1.87121 -0.774555
rclavicle -6.7711e-015 1.94809e-014
rhumerus -45.6657 3.46877 -85.2605
rradius 91.6567
rwrist -4.45118
rhand -35.7932 34.1462
rfingers 7.12502
rthumb -8.91024 4.35435
lclavicle -6.7711e-015 1.94809e-014
lhumerus -35.6902 -18.6426 94.4658
lradius 107.298
lwrist 25.0119
lhand -36.3351 8.58791
lfingers 7.12502
lthumb -9.43312 38.3568
rfemur -24.9073 4.94001 27.9281
rtibia 38.3984
rfoot -9.06546 -2.53174
rtoes 9.2582
lfemur -0.313098 9.69247 -18.0226
ltibia 93.2725
lfoot 21.8172 0.55145
ltoes -7.03698
227
root -0.0182 17.4471 -21.4158 1.22324 0.0506 -1.57519
lowerback 19.1027 -1.4799 0.966346
upperback 2.13681 -1.66268 1.01684
thorax -8.38467 -0.816338 0.981063
lowerneck -4.26623 2.81728 0.157694
upperneck -11.4876 3.55232 -2.40234
head -2.87569 1.81951 -0.839363
rclavicle -2.44878e-014 -1.79403e-014
rhumerus -42.5598 4.41261 -85.9356
rradius 92.3155
rwrist -4.42046
rhand -36.4467 34.2206
rfingers 7.12502
rthumb -9.5408 4.45664
lclavicle -2.44878e-014 -1.79403e-014
lhumerus -36.2803 -17.9919 94.3932
lradius 106.508
lwrist 24.1951
lhand -36.3254 10.3347
lfingers 7.12502
lthumb -9.4238 40.104
rfemur -24.0441 5.98044 29.0942
rtibia 40.6908
rfoot -10.4423 -4.49231
rtoes 9.35007
lfemur -3.16805 11.0549 -15.5841
ltibia 98.1006
lfoot 20.8466 -0.676967
ltoes -5.84241
228
root -0.0182 17.3383 -21.1188 1.25931 0.0506 -2.59188
lowerback 19.5125 -1.22082 1.41791
upperback 2.42159 -1.19942 1.30319
thorax -8.3028 -0.605192 0.918691
lowerneck -4.20551 2.7902 0.242094
upperneck -12.272 3.48822 -2.54271
head -3.15318 1.79163 -0.913644
rclavicle 1.68718e-014 -1.95803e-014
rhumerus -39.5927 5.54546 -86.5864
rradius 92.9616
rwrist -4.37113
rhand -37.2985 34.8339
rfingers 7.12502
rthumb -10.3626 5.10921
lclavicle 1.68718e-014 -1.95803e-014
lhumerus -37.1156 -16.8517 94.2131
lradius 105.944
lwrist 23.135
lhand -36.3982 12.65
lfingers 7.12502
lthumb -9.49399 42.4161
rfemur -23.0259 7.18497 30.4261
rtibia 42.4251
rfoot -11.9684 -5.75882
rtoes 9.76491
lfemur -6.15581 12.7758 -12.925
ltibia 102.57
lfoot 19.5642 -2.13957
ltoes -5.69819
229
root -0.0182 17.2517 -20.8218 1.54822 0.0506 -3.82706
lowerback 19.5773 -1.05979 2.29721
upperback 2.64536 -0.779776 1.61323
thorax -8.10202 -0.426757 0.641664
lowerneck -4.37803 2.83031 0.25048
upperneck -12.7388 3.54049 -2.48753
head -3.28399 1.81683 -0.903096
rclavicle 5.18704e-015 -6.98231e-015
rhumerus -36.6406 6.51762 -87.0776
rradius 93.6293
rwrist -4.20233
rhand -38.0489 35.2466
rfingers 7.12502
rthumb -11.0864 5.55939
lclavicle 5.18704e-015 -6.98231e-015
lhumerus -38.1211 -15.8803 94.2363
lradius 105.351
lwrist 22.8161
lhand -36.535 12.7105
lfingers 7.12502
lthumb -9.62606 42.4706
rfemur -21.7419 8.08463 31.8371
rtibia 43.4876
rfoot -13.7771 -6.75441
rtoes 9.06694
lfemur -9.29724 14.1249 -10.2219
ltibia 106.496
lfoot 18.0724 -3.14295
ltoes -7.14689
230
root -0.0182 17.1796 -20.5249 1.87237 0.0506 -4.64594
lowerback 19.7265 -1.14548 3.07961
upperback 2.70722 -0.707315 1.77844
thorax -8.12202 -0.412879 0.358603
lowerneck -4.14743 2.77816 0.294387
upperneck -13.4694 3.46957 -2.38817
head -3.58504 1.78042 -0.89556
rclavicle -2.02046e-015 3.12775e-015
rhumerus -33.8946 7.19176 -87.4481
rradius 94.2057
rwrist -3.52016
rhand -38.7875 35.7411
rfingers 7.12502
rthumb -11.7988 6.09348
lclavicle -2.02046e-015 3.12775e-015
lhumerus -39.6492 -14.793 94.4149
lradius 104.747
lwrist 22.7303
lhand -36.3264 10.933
lfingers 7.12502
lthumb -9.42476 40.7022
rfemur -20.3861 8.40936 32.6834
rtibia 43.961
rfoot -15.4824 -7.59891
rtoes 9.34244
lfemur -13.1751 14.5736 -8.47296
ltibia 109.969
lfoot 17.5514 -4.19264
ltoes -6.40155
231
root -0.0182 17.1275 -20.2279 2.2727 0.0506 -5.25126
lowerback 19.9934 -1.16282 3.61044
upperback 2.57744 -0.587787 1.8873
thorax -8.41102 -0.373475 0.150438
lowerneck -3.74694 2.59402 0.192715
upperneck -14.0527 3.23888 -2.15496
head -3.87671 1.66625 -0.815612
rclavicle -7.10966e-015 -1.47598e-014
rhumerus -31.45 7.81566 -87.7443
rradius 94.718
rwrist -2.77728
rhand -38.4463 35.9956
rfingers 7.12502
rthumb -11.4697 6.32938
lclavicle -7.10966e-015 -1.47598e-014
lhumerus -41.5111 -13.2618 94.5334
lradius 104.353
lwrist 23.0513
lhand -36.3057 9.62956
lfingers 7.12502
lthumb -9.40477 39.3997
rfemur -18.8284 8.84576 33.348
rtibia 43.6624
rfoot -16.4737 -8.28599
rtoes 8.8632
lfemur -17.6849 15.2017 -7.30771
ltibia 112.95
lfoot 17.358 -5.9145
ltoes -3.14064
